<svg width="1350" height="384" viewBox="0 0 1350 384" fill="none" xmlns="http://www.w3.org/2000/svg">
<path id="Fill 1" fill-rule="evenodd" clip-rule="evenodd" d="M1266.7 178.621C1288.78 172.16 1310.89 165.694 1333.11 159.19C1330.67 147.323 1327.49 136.306 1321.06 126.315C1305.93 102.8 1283.76 88.7451 1258.38 79.0867C1241.18 72.5426 1223.07 70.4351 1204.79 69.4484C1179 68.0557 1153.53 69.6666 1128.8 77.7007C1105.39 85.3086 1084.99 97.484 1071.91 119.126C1057.61 142.799 1056.44 167.355 1069.6 191.977C1080.59 212.549 1098.62 224.379 1120.18 231.725C1138.9 238.108 1158.44 240.534 1177.71 244.273C1196.35 247.891 1215.09 251.039 1233.65 255.019C1245.42 257.542 1256.91 261.254 1266.75 268.734C1284.8 282.464 1285.71 305.861 1268.75 320.426C1259.11 328.698 1247.74 332.89 1235.37 334.591C1218.82 336.867 1202.3 335.941 1185.79 333.904C1164.6 331.289 1146.14 322.782 1130.57 308.21C1119.72 298.059 1112.88 285.655 1111.32 270.714C1110.86 266.392 1111.25 261.986 1111.25 256.995C1088.28 263.66 1066.2 270.063 1044 276.503C1047.51 288.884 1050.5 300.962 1057.32 311.721C1078.84 345.656 1110.73 364.986 1148.17 376.292C1164.32 381.169 1181.11 382.534 1197.91 383.484C1225.36 385.035 1252.44 383.384 1278.73 374.474C1302.9 366.278 1323.55 353.338 1337.9 331.531C1355.88 304.23 1354.88 263.935 1327.75 236.736C1316.86 225.805 1303.47 219.291 1289.09 214.422C1271.11 208.331 1252.34 205.925 1233.79 202.488C1212.41 198.525 1190.96 194.85 1169.66 190.464C1156.84 187.823 1144.57 183.326 1134.33 174.664C1124.1 166.019 1121.51 154.501 1127.21 142.42C1132.83 130.54 1142.94 124.254 1155.13 120.858C1171.03 116.422 1187.26 116.579 1203.51 117.955C1216.41 119.046 1228.7 122.157 1239.71 129.49C1252.09 137.732 1261.71 148.041 1265.1 162.935C1266.23 167.929 1266.18 173.197 1266.7 178.621ZM952.024 375.97H1016.99V373.148C1016.99 312.27 1017.02 251.389 1016.97 190.511C1016.96 174.26 1015.25 158.214 1010.43 142.605C999.161 106.104 975.625 82.3934 938.159 73.2924C916.427 68.0155 894.379 66.9494 872.169 68.927C852.84 70.649 834.603 75.5963 818.2 86.6041C797.006 100.824 781.208 119.184 773.298 143.702C771.208 150.176 770.226 157.01 768.61 164.244C767.981 162.445 767.477 161.13 767.061 159.785C759.227 134.399 745.839 76.8003 745.399 75.4416C745.399 75.4416 717.635 75.5155 710 75.5155V376H774.588C774.588 374.399 774.588 372.983 774.588 371.567C774.588 315.015 774.561 258.458 774.632 201.906C774.639 196.935 775.055 191.934 775.697 187.003C778.254 167.338 786.582 150.603 801.744 137.634C815.787 125.624 832.092 118.824 850.551 117.233C870.136 115.545 889.539 115.948 908.277 122.705C927.093 129.489 940.756 141.761 947.491 161.016C951.16 171.509 952.041 182.402 952.037 193.434C952.007 252.872 952.021 312.307 952.024 371.746V375.97ZM690.55 358.815C691.933 357.308 692.33 356.033 691.727 354.091C690.58 350.393 689.682 346.615 688.672 342.873C685.677 331.773 682.683 320.676 679.776 309.92C675.913 314.566 672.494 319.509 668.254 323.6C660.172 331.4 650.606 336.151 638.95 335.538C629.424 335.04 622.54 330.653 619.676 321.467C618.118 316.467 617.065 311.043 617.149 305.835C617.59 278.547 618.643 251.273 619.131 223.986C619.511 202.818 620.339 181.591 619.172 160.487C618.112 141.278 610.443 123.987 597.755 109.196C583.572 92.6688 565.22 82.7059 544.927 76.0237C521.178 68.2075 496.685 67.1712 471.92 68.4733C444.238 69.9302 418.584 77.5647 394.916 92.1035C375.424 104.078 358.731 118.856 347.082 138.751C343.66 144.596 341.086 150.935 338 157.301C360.766 163.899 382.86 170.302 405.216 176.779C406.34 173.832 407.282 171.137 408.385 168.512C418.11 145.377 434.83 129.394 458.353 120.922C472.903 115.68 488.135 115.552 503.391 117.039C516.12 118.277 527.436 122.638 536.898 131.548C550.559 144.414 555.338 160.494 554.685 178.865C553.881 179.003 553.251 179.141 552.615 179.215C529.708 181.998 506.985 185.823 484.693 191.85C453.457 200.295 423.742 212.27 397.467 231.549C371.369 250.701 353.714 275.384 349.639 308.288C346.54 333.294 354.838 353.906 374.677 369.572C385.542 378.149 398.288 382.001 411.912 383.236C435.217 385.349 457.068 380.961 476.429 367.483C509.064 344.764 532.161 314.24 548.08 278.049C550.152 273.339 552.148 268.595 554.18 263.867C554.402 263.918 554.624 263.968 554.846 264.019V267.168C554.846 282.255 554.533 297.356 554.967 312.43C555.22 321.137 555.741 330.037 557.79 338.449C562.565 358.021 574.366 372.227 593.73 378.835C616.056 386.453 638.442 385.423 660.492 377.203C671.68 373.031 682.272 367.829 690.55 358.815ZM547.512 244.982C533.651 273.81 515.498 299.199 490.437 319.309C479.231 328.303 466.869 334.584 452.299 335.778C446.027 336.293 439.869 336.074 434.078 333.354C423.608 328.435 419.501 319.268 419.068 308.504C418.311 289.675 423.891 272.809 436.475 258.542C453.771 238.931 475.998 226.592 499.388 216.138C516.812 208.35 535.103 203.003 553.542 198.209C554.164 198.047 554.83 198.057 555.347 198C557.36 214.513 554.709 230.014 547.512 244.982ZM306.962 372.732C306.962 312.295 307.107 251.861 306.831 191.428C306.777 180.048 305.665 168.577 303.935 157.322C300.676 136.138 292.029 117.222 277.754 101.092C265.118 86.8185 248.938 78.5311 230.85 73.6261C209.553 67.8485 187.85 66.8109 165.949 68.2528C145.693 69.5868 126.859 75.0073 109.843 86.5523C88.5328 101.011 73.0752 119.648 66.4601 144.992C66.1342 146.242 65.6907 147.464 65.3044 148.697C65.0524 148.647 64.8004 148.593 64.5485 148.539V0C43.0637 4.51425 21.6998 6.17846 0 6.22225V376H64.7299V371.782C64.7299 315.236 64.6862 258.69 64.7937 202.144C64.8038 196.067 65.2607 189.922 66.2484 183.929C71.1703 154.044 88.647 134.137 116.018 122.629C128.65 117.317 142.159 116.107 155.745 116.074C172.927 116.03 189.752 117.91 205.525 125.51C220.233 132.598 230.951 143.378 236.817 158.794C241.033 169.871 242.131 181.439 242.138 193.153C242.168 252.7 242.152 312.245 242.152 371.792V375.987H306.962V372.732Z" fill="#1D1D1B"/>
</svg>
